<svg width="128" height="24" viewBox="0 0 128 24" fill="none" xmlns="http://www.w3.org/2000/svg">
<path fill-rule="evenodd" clip-rule="evenodd" d="M113.263 0C117.681 0 121.263 3.58172 121.263 8V9.75H128L121.263 15.75V16C121.263 20.4183 117.681 24 113.263 24H8.00002C3.58175 24 2.28882e-05 20.4183 2.28882e-05 16V8C2.28882e-05 3.58172 3.58174 0 8.00002 0H113.263Z" fill="#ECEAF9"/>
<path d="M16.8641 16H15.7332V8.39453H11.5262V16H10.4012V7.46875H16.8641V16ZM24.5004 12.9004C24.5004 13.8652 24.2797 14.6426 23.8383 15.2324C23.3969 15.8223 22.7992 16.1172 22.0453 16.1172C21.2758 16.1172 20.6703 15.873 20.2289 15.3848V18.4375H19.1449V9.66016H20.1352L20.1879 10.3633C20.6293 9.81641 21.2426 9.54297 22.0277 9.54297C22.7895 9.54297 23.391 9.83008 23.8324 10.4043C24.2777 10.9785 24.5004 11.7773 24.5004 12.8008V12.9004ZM23.4164 12.7773C23.4164 12.0625 23.2641 11.498 22.9594 11.084C22.6547 10.6699 22.2367 10.4629 21.7055 10.4629C21.0492 10.4629 20.557 10.7539 20.2289 11.3359V14.3652C20.5531 14.9434 21.0492 15.2324 21.7172 15.2324C22.2367 15.2324 22.6488 15.0273 22.9535 14.6172C23.2621 14.2031 23.4164 13.5898 23.4164 12.7773ZM30.3848 9.66016H31.4688V16H30.3848V11.377L27.4609 16H26.377V9.66016H27.4609V14.2891L30.3848 9.66016ZM33.7086 16V9.66016H36.1813C37.025 9.66016 37.6715 9.80859 38.1207 10.1055C38.5738 10.3984 38.8004 10.8301 38.8004 11.4004C38.8004 11.6934 38.7125 11.959 38.5367 12.1973C38.3609 12.4316 38.1012 12.6113 37.7574 12.7363C38.1402 12.8262 38.4469 13.002 38.6773 13.2637C38.9117 13.5254 39.0289 13.8379 39.0289 14.2012C39.0289 14.7832 38.8141 15.2285 38.3844 15.5371C37.9586 15.8457 37.3551 16 36.5738 16H33.7086ZM34.7926 13.2168V15.127H36.5855C37.0387 15.127 37.3766 15.043 37.5992 14.875C37.8258 14.707 37.9391 14.4707 37.9391 14.166C37.9391 13.5332 37.4742 13.2168 36.5445 13.2168H34.7926ZM34.7926 12.3496H36.193C37.2086 12.3496 37.7164 12.0527 37.7164 11.459C37.7164 10.8652 37.2359 10.5586 36.275 10.5391H34.7926V12.3496ZM43.4953 16.1172C42.6359 16.1172 41.9367 15.8359 41.3977 15.2734C40.8586 14.707 40.5891 13.9512 40.5891 13.0059V12.8066C40.5891 12.1777 40.7082 11.6172 40.9465 11.125C41.1887 10.6289 41.5246 10.2422 41.9543 9.96484C42.3879 9.68359 42.8566 9.54297 43.3605 9.54297C44.1848 9.54297 44.8254 9.81445 45.2824 10.3574C45.7395 10.9004 45.968 11.6777 45.968 12.6895V13.1406H41.673C41.6887 13.7656 41.8703 14.2715 42.218 14.6582C42.5695 15.041 43.0148 15.2324 43.5539 15.2324C43.9367 15.2324 44.2609 15.1543 44.5266 14.998C44.7922 14.8418 45.0246 14.6348 45.2238 14.377L45.8859 14.8926C45.3547 15.709 44.5578 16.1172 43.4953 16.1172ZM43.3605 10.4336C42.923 10.4336 42.5559 10.5938 42.259 10.9141C41.9621 11.2305 41.7785 11.6758 41.7082 12.25H44.884V12.168C44.8527 11.6172 44.7043 11.1914 44.4387 10.8906C44.173 10.5859 43.8137 10.4336 43.3605 10.4336ZM52.2684 10.5391H50.1414V16H49.0574V10.5391H46.9715V9.66016H52.2684V10.5391ZM53.7465 15.4316C53.7465 15.2441 53.8012 15.0879 53.9105 14.9629C54.0238 14.8379 54.1918 14.7754 54.4145 14.7754C54.6371 14.7754 54.8051 14.8379 54.9184 14.9629C55.0355 15.0879 55.0941 15.2441 55.0941 15.4316C55.0941 15.6113 55.0355 15.7617 54.9184 15.8828C54.8051 16.0039 54.6371 16.0645 54.4145 16.0645C54.1918 16.0645 54.0238 16.0039 53.9105 15.8828C53.8012 15.7617 53.7465 15.6113 53.7465 15.4316ZM65.2984 16V12.6777H63.3297L61.566 16H60.3648L62.3453 12.3672C61.2438 11.9336 60.693 11.1582 60.693 10.041C60.693 9.22852 60.9586 8.59766 61.4898 8.14844C62.025 7.69531 62.7672 7.46875 63.7164 7.46875H66.4293V16H65.2984ZM61.818 10.041C61.818 10.5566 61.9781 10.9707 62.2984 11.2832C62.6227 11.5957 63.0719 11.7539 63.6461 11.7578H65.2984V8.39453H63.6988C63.0895 8.39453 62.6227 8.53906 62.2984 8.82812C61.9781 9.11719 61.818 9.52148 61.818 10.041ZM73.2527 13.293C73.3621 13.9961 73.5828 14.4902 73.9148 14.7754C74.2508 15.0566 74.7313 15.1973 75.3563 15.1973C76.032 15.1973 76.5652 14.9336 76.9559 14.4062C77.3504 13.8789 77.5516 13.1465 77.5594 12.209H74.202V11.2832H77.5594C77.5594 10.3574 77.3563 9.625 76.95 9.08594C76.5477 8.54688 75.9832 8.27734 75.2566 8.27734C74.6707 8.27734 74.2137 8.42969 73.8855 8.73438C73.5613 9.03906 73.3504 9.53125 73.2527 10.2109H72.1219C72.2117 9.31641 72.5301 8.61719 73.077 8.11328C73.6238 7.60547 74.3504 7.35156 75.2566 7.35156C75.9441 7.35156 76.5477 7.51562 77.0672 7.84375C77.5906 8.16797 77.991 8.63281 78.2684 9.23828C78.5496 9.83984 78.6902 10.5332 78.6902 11.3184V12.168C78.6902 12.9531 78.5516 13.6465 78.2742 14.248C77.9969 14.8496 77.6043 15.3125 77.0965 15.6367C76.5926 15.957 76.0125 16.1172 75.3563 16.1172C74.4266 16.1172 73.6805 15.873 73.118 15.3848C72.5594 14.8926 72.2273 14.1953 72.1219 13.293H73.2527ZM84.2172 14.5645L86.3734 9.66016H87.727V16H86.643V11.3887L84.5922 16H83.8422L81.7504 11.2891V16H80.6664V9.66016H82.0727L84.2172 14.5645ZM93.9746 9.66016H95.0586V16H93.9746V11.377L91.0508 16H89.9668V9.66016H91.0508V14.2891L93.9746 9.66016ZM102.396 9.66016V16H101.306V10.5566H99.15L99.0211 12.9297C98.9508 14.0195 98.7672 14.7988 98.4703 15.2676C98.1773 15.7363 97.7105 15.9805 97.0699 16H96.6363V15.0449L96.9469 15.0215C97.2984 14.9824 97.5504 14.7793 97.7027 14.4121C97.8551 14.0449 97.9527 13.3652 97.9957 12.373L98.1129 9.66016H102.396ZM108.638 9.66016H109.722V16H108.638V11.377L105.714 16H104.63V9.66016H105.714V14.2891L108.638 9.66016Z" fill="#2A2D43"/>
</svg>
