<svg width="40" height="40" viewBox="0 0 40 40" fill="none" xmlns="http://www.w3.org/2000/svg">
<path fill-rule="evenodd" clip-rule="evenodd" d="M32.7949 7.57515C32.5444 7.82532 32.0904 8.15366 31.5737 8.43509C31.104 8.68526 30.5873 8.90415 30.1333 9.0136C29.9611 9.04487 29.7888 9.07614 29.6323 9.07614C29.5227 9.07614 29.4131 9.0605 29.3191 9.02923C29.2095 8.99796 29.1156 8.95106 29.053 8.87288C28.9903 8.81034 28.9434 8.7478 28.9121 8.66962C28.8964 8.65399 28.8964 8.62271 28.8807 8.60708C28.8651 8.5289 28.8494 8.45073 28.8338 8.35691C28.8338 8.34128 28.8338 8.34128 28.8338 8.32564C28.8181 8.18493 28.8338 8.01294 28.8651 7.84095C28.9434 7.38753 29.1469 6.85593 29.3974 6.37124C29.6636 5.83964 29.9767 5.37058 30.2272 5.10478C30.9161 4.40119 32.0434 4.38556 32.748 5.07351C33.4682 5.73019 33.4838 6.87156 32.7949 7.57515Z" fill="#2A2D43"/>
<path d="M31.5111 4.5419C31.9652 4.5419 32.4036 4.71389 32.748 5.04223C33.4526 5.73018 33.4682 6.85592 32.7793 7.55951C32.5288 7.80967 32.0748 8.13801 31.5581 8.41945C31.0884 8.66961 30.5717 8.88851 30.1177 8.99795C29.9454 9.02922 29.7889 9.06049 29.6323 9.06049H29.6166C29.507 9.06049 29.3974 9.04486 29.3035 9.01359C29.1939 8.98232 29.1 8.93541 29.0373 8.85724C28.9747 8.79469 28.9277 8.73215 28.8964 8.65398C28.8808 8.63834 28.8808 8.60707 28.8651 8.59144C28.8495 8.51326 28.8338 8.43508 28.8181 8.34127C28.8181 8.32564 28.8181 8.32564 28.8181 8.31C28.8025 8.16928 28.8181 7.9973 28.8495 7.82531C28.9277 7.37189 29.1313 6.84029 29.3818 6.35559C29.648 5.82399 29.9611 5.35494 30.2116 5.08914C30.5874 4.72953 31.0571 4.5419 31.5111 4.5419ZM31.5111 4.16666C30.9162 4.16666 30.3682 4.40119 29.9611 4.82334C29.6793 5.10477 29.3505 5.62074 29.053 6.18361C28.7712 6.74648 28.5676 7.30934 28.4894 7.76277C28.4424 7.98166 28.4424 8.16928 28.4424 8.34127C28.4424 8.35691 28.4424 8.37254 28.4424 8.40381C28.4424 8.49762 28.458 8.5758 28.4894 8.65398V8.66961L28.505 8.73215C28.5207 8.76342 28.5207 8.79469 28.5363 8.82597C28.5833 8.95105 28.6616 9.06049 28.7555 9.15431C28.8808 9.27939 29.0217 9.35756 29.1939 9.40447C29.3192 9.43574 29.4444 9.46701 29.601 9.46701H29.6323C29.8045 9.46701 29.9924 9.45138 30.1959 9.40447C30.7752 9.27939 31.3545 8.99795 31.746 8.79469C32.294 8.49762 32.7793 8.15365 33.0611 7.87221C33.4682 7.4657 33.6874 6.91846 33.6718 6.33996C33.6561 5.76145 33.4369 5.22985 33.0142 4.82334C32.6228 4.38555 32.0904 4.16666 31.5111 4.16666Z" fill="#2A2D43"/>
<path opacity="0.25" fill-rule="evenodd" clip-rule="evenodd" d="M30.1333 8.99796C30.1802 9.07614 30.2272 9.15431 30.2585 9.23249L29.7732 9.34194L29.6009 9.37321L29.0999 9.48265L28.912 8.63835L28.8964 8.57581L28.8338 8.32564V8.29437L28.7085 7.7315C28.7711 7.74714 28.8181 7.77841 28.8807 7.80968C28.959 7.35626 29.1625 6.82466 29.4131 6.33997C29.5383 6.79339 29.7732 7.27808 30.1959 7.65333C30.6343 8.02857 31.1353 8.2631 31.5737 8.41946C31.104 8.68526 30.5873 8.90415 30.1333 8.99796Z" fill="#2A2D43"/>
<path fill-rule="evenodd" clip-rule="evenodd" d="M30.5247 10.6396C30.5247 10.7335 30.5091 10.8116 30.4934 10.9054C30.4621 11.0462 30.4308 11.1712 30.3838 11.312C30.3681 11.3745 30.3368 11.437 30.3055 11.4996C30.2429 11.6247 30.1803 11.7498 30.0863 11.8592C30.0393 11.9374 29.9767 11.9999 29.9141 12.0781C29.8358 12.1563 29.7419 12.2501 29.6479 12.3126C28.5833 13.11 26.9863 12.7973 26.0938 11.5934C25.4363 10.7335 25.3267 9.63899 25.7181 8.81032C25.812 8.60706 25.9373 8.41944 26.0938 8.24745C26.1565 8.18491 26.2034 8.12237 26.2817 8.07546C26.313 8.04419 26.36 8.01292 26.3913 7.99729C26.407 7.99729 26.407 7.98165 26.4226 7.98165C26.6575 7.80966 26.9236 7.68458 27.1898 7.62204C27.2681 7.60641 27.3464 7.59077 27.4403 7.57514C27.8631 7.52823 28.3171 7.59077 28.7398 7.76276C28.8025 7.77839 28.8494 7.80966 28.9121 7.84094C29.3035 8.02856 29.6792 8.32563 29.9611 8.71651C30.0393 8.81032 30.102 8.91977 30.1646 9.01358C30.2116 9.09176 30.2585 9.16993 30.2899 9.24811C30.4777 9.6859 30.556 10.1706 30.5247 10.6396Z" fill="#6355E0"/>
<path d="M27.7065 7.54387C28.0353 7.54387 28.3797 7.60641 28.7085 7.74712C28.7712 7.76276 28.8181 7.79403 28.8808 7.8253C29.2722 8.01292 29.6479 8.30999 29.9298 8.70088C30.0081 8.79469 30.0707 8.90413 30.1333 8.99795C30.1803 9.07612 30.2272 9.1543 30.2586 9.23248C30.4778 9.6859 30.556 10.1706 30.5247 10.6396C30.5247 10.7335 30.5091 10.8116 30.4934 10.9054C30.4621 11.0462 30.4308 11.1712 30.3838 11.312C30.3682 11.3745 30.3368 11.437 30.3055 11.4996C30.2429 11.6247 30.1803 11.7498 30.0863 11.8592C30.0394 11.9374 29.9767 11.9999 29.9141 12.0781C29.8358 12.1563 29.7419 12.2501 29.6479 12.3126C29.2565 12.6097 28.7868 12.7504 28.3015 12.7504C27.4873 12.7504 26.6575 12.3439 26.0782 11.5934C25.4206 10.7335 25.311 9.63899 25.7024 8.81032C25.7964 8.60706 25.9216 8.41944 26.0782 8.24745C26.1408 8.18491 26.1878 8.12237 26.2661 8.07547C26.2974 8.04419 26.3444 8.01292 26.3757 7.99729C26.3913 7.99729 26.3913 7.98165 26.407 7.98165C26.6418 7.80967 26.908 7.68458 27.1742 7.62204C27.2525 7.60641 27.3307 7.59077 27.4247 7.57514C27.5186 7.54387 27.6126 7.54387 27.7065 7.54387ZM27.7065 7.15298C27.5969 7.15298 27.4716 7.15298 27.3621 7.16862C27.2681 7.18426 27.1742 7.19989 27.0802 7.21553C26.7514 7.2937 26.454 7.43442 26.1878 7.62204C26.1721 7.63768 26.1565 7.63768 26.1408 7.65331C26.0939 7.68458 26.0469 7.71585 26.0156 7.76276C25.9373 7.8253 25.8747 7.90348 25.7964 7.96602C25.6241 8.15364 25.4676 8.37254 25.358 8.6227C24.9039 9.60772 25.0605 10.8585 25.7807 11.7967C26.407 12.6097 27.3464 13.11 28.3015 13.11C28.8808 13.11 29.4287 12.938 29.8671 12.5941C29.9767 12.5159 30.0863 12.4221 30.1803 12.3126C30.2586 12.2344 30.3212 12.1563 30.3838 12.0625C30.4778 11.9374 30.5717 11.781 30.6343 11.6403C30.6656 11.5621 30.6969 11.484 30.7283 11.4058L30.7439 11.3432C30.7909 11.2182 30.8222 11.0774 30.8379 10.9524C30.8535 10.8429 30.8692 10.7491 30.8692 10.6553C30.9161 10.1237 30.8065 9.57645 30.556 9.06049C30.5091 8.96668 30.4621 8.87286 30.4151 8.79469C30.3525 8.68524 30.2742 8.57579 30.1959 8.46635C29.8828 8.04419 29.4601 7.70022 29.006 7.48133C28.9277 7.45005 28.8651 7.41878 28.8025 7.38751C28.4893 7.23116 28.0979 7.15298 27.7065 7.15298Z" fill="#2A2D43"/>
<path opacity="0.25" fill-rule="evenodd" clip-rule="evenodd" d="M30.5246 10.6396C30.5246 10.7335 30.509 10.8116 30.4933 10.9054C30.462 11.0462 30.4307 11.1712 30.3837 11.312C30.368 11.3745 30.3367 11.437 30.3054 11.4996C30.2428 11.6247 30.1802 11.7498 30.0862 11.8592C30.0862 11.8748 30.0706 11.8748 30.0706 11.8905C29.1155 11.8905 28.1604 11.8123 28.1604 11.8123L25.8589 8.6227C25.9215 8.49762 25.9998 8.37253 26.0781 8.24745C26.1407 8.18491 26.1877 8.12237 26.266 8.07546C26.2973 8.04419 26.3442 8.01292 26.3756 7.99729C26.3912 7.99729 26.3912 7.98165 26.4069 7.98165C26.6417 7.80966 26.9079 7.68458 27.1741 7.62204C27.2523 7.6064 27.3306 7.59077 27.4246 7.57513C27.9099 8.37253 28.9276 9.7328 30.5246 10.6396Z" fill="#2A2D43"/>
<path opacity="0.2" fill-rule="evenodd" clip-rule="evenodd" d="M28.1292 8.09109C28.1292 8.09109 28.9276 8.18491 29.3817 8.70087C29.8201 9.2012 29.9453 9.92042 29.9453 9.92042C29.9453 9.92042 29.6479 9.35755 29.2095 8.87286C28.818 8.45071 28.1761 8.138 28.1292 8.09109Z" fill="white"/>
<path opacity="0.2" fill-rule="evenodd" clip-rule="evenodd" d="M31.5737 4.94843C31.5737 4.94843 32.4974 5.15168 32.7949 6.13671C33.0924 7.12173 32.4192 6.98101 32.3722 6.57449C32.3252 6.19925 32.3722 5.91781 32.0121 5.54257C31.6833 5.21422 31.4171 4.96406 31.5737 4.94843Z" fill="white"/>
<path fill-rule="evenodd" clip-rule="evenodd" d="M7.11788 7.57516C7.36839 7.82533 7.82243 8.15367 8.33911 8.4351C8.80881 8.68527 9.32549 8.90416 9.77953 9.01361C9.95176 9.04488 10.124 9.07615 10.2806 9.07615C10.3901 9.07615 10.4997 9.06051 10.5937 9.02924C10.7033 8.99797 10.7972 8.95107 10.8599 8.87289C10.9225 8.81035 10.9695 8.74781 11.0008 8.66963C11.0164 8.654 11.0164 8.62273 11.0321 8.60709C11.0477 8.52891 11.0634 8.45074 11.079 8.35693C11.079 8.34129 11.079 8.34129 11.079 8.32566C11.0947 8.18494 11.079 8.01295 11.0477 7.84096C10.9695 7.38754 10.7659 6.85594 10.5154 6.37125C10.2336 5.80838 9.92044 5.33932 9.66994 5.08915C8.98104 4.38557 7.85375 4.36993 7.14919 5.05788C6.44463 5.7302 6.42898 6.87158 7.11788 7.57516Z" fill="#2A2D43"/>
<path d="M8.40166 4.5419C8.87136 4.5419 9.32541 4.72953 9.68551 5.0735C9.92037 5.3393 10.2335 5.80836 10.5153 6.35559C10.7502 6.84029 10.9537 7.37189 11.0477 7.82531C11.079 7.9973 11.0946 8.16929 11.079 8.31C11.079 8.32564 11.079 8.32564 11.079 8.34127C11.079 8.43508 11.0633 8.51326 11.032 8.59144C11.032 8.60707 11.0163 8.63834 11.0007 8.65398C10.9694 8.73215 10.9224 8.7947 10.8598 8.85724C10.7815 8.93541 10.6876 8.98232 10.5936 9.01359C10.4997 9.04486 10.4057 9.0605 10.2805 9.0605H10.2648C10.1239 9.0605 9.95168 9.04486 9.77946 8.99795C9.32541 8.90414 8.80873 8.68525 8.33903 8.41945C7.82236 8.13801 7.36831 7.80967 7.1178 7.55951C6.4289 6.85592 6.44456 5.73018 7.14911 5.04223C7.50922 4.71389 7.94761 4.5419 8.40166 4.5419ZM8.40166 4.16666C7.83801 4.16666 7.30568 4.38555 6.8986 4.77643C6.49153 5.18295 6.25668 5.71455 6.24102 6.29305C6.22536 6.87156 6.44456 7.41879 6.85163 7.82531C7.13346 8.10674 7.61882 8.45072 8.16681 8.74779C8.54257 8.95105 9.12187 9.23248 9.71683 9.35757C9.92037 9.40447 10.1082 9.42011 10.2805 9.42011H10.3118C10.4684 9.42011 10.5936 9.40447 10.7189 9.35757C10.8911 9.31066 11.032 9.23248 11.1416 9.1074C11.2355 9.01359 11.3138 8.90414 11.3608 8.77906C11.3765 8.74779 11.3921 8.71652 11.3921 8.68525L11.4078 8.62271V8.60707C11.4234 8.5289 11.4391 8.43508 11.4547 8.35691C11.4547 8.34127 11.4547 8.31 11.4547 8.29437C11.4704 8.12238 11.4547 7.93476 11.4078 7.71586C11.3295 7.26244 11.1259 6.69957 10.8441 6.1367C10.5623 5.57383 10.2178 5.0735 9.93602 4.77643C9.5446 4.40119 8.98096 4.16666 8.40166 4.16666Z" fill="#2A2D43"/>
<path opacity="0.25" fill-rule="evenodd" clip-rule="evenodd" d="M9.79516 8.99796C9.74819 9.07614 9.70122 9.15431 9.66991 9.23249L10.1553 9.34194L10.3275 9.37321L10.8285 9.48265L11.0164 8.63835L11.032 8.57581L11.0947 8.32564V8.29437L11.2199 7.7315C11.1573 7.74714 11.1103 7.77841 11.0477 7.80968C10.9694 7.35626 10.7659 6.82466 10.5154 6.33997C10.3901 6.79339 10.1553 7.27808 9.73253 7.65333C9.29414 8.02857 8.79313 8.2631 8.35474 8.41946C8.80878 8.68526 9.32546 8.90415 9.79516 8.99796Z" fill="#2A2D43"/>
<path fill-rule="evenodd" clip-rule="evenodd" d="M9.38805 10.6396C9.38805 10.7335 9.4037 10.8116 9.41936 10.9054C9.45067 11.0462 9.48199 11.1712 9.52896 11.312C9.54461 11.3745 9.57593 11.437 9.60724 11.4996C9.66987 11.6247 9.7325 11.7498 9.82644 11.8592C9.87341 11.9374 9.93604 11.9999 9.99866 12.0781C10.0769 12.1563 10.1709 12.2501 10.2648 12.3126C11.3295 13.11 12.9265 12.7973 13.8189 11.5934C14.4765 10.7335 14.5861 9.63899 14.1947 8.81032C14.1007 8.60706 13.9755 8.41944 13.8189 8.24745C13.7563 8.18491 13.7093 8.12237 13.631 8.07546C13.5997 8.04419 13.5528 8.01292 13.5214 7.99729C13.5058 7.99729 13.5058 7.98165 13.4901 7.98165C13.2553 7.80966 12.9891 7.68458 12.7229 7.62204C12.6447 7.60641 12.5664 7.59077 12.4724 7.57514C12.0497 7.52823 11.5957 7.59077 11.1729 7.76276C11.1103 7.77839 11.0633 7.80966 11.0007 7.84094C10.6093 8.02856 10.2335 8.32563 9.95169 8.71651C9.87341 8.81032 9.81078 8.91977 9.74815 9.01358C9.70118 9.09176 9.65421 9.16993 9.6229 9.24811C9.45067 9.6859 9.35673 10.1706 9.38805 10.6396Z" fill="#6355E0"/>
<path d="M12.2063 7.54387C12.3002 7.54387 12.4098 7.54387 12.5038 7.5595C12.5821 7.57514 12.6604 7.59077 12.7543 7.60641C13.0205 7.66895 13.2866 7.79403 13.5215 7.96602C13.5371 7.96602 13.5371 7.98165 13.5528 7.98165C13.5841 8.01292 13.6311 8.04419 13.6624 8.05983C13.725 8.12237 13.7876 8.16928 13.8503 8.23182C14.0068 8.40381 14.1321 8.59143 14.226 8.79469C14.6018 9.63899 14.4765 10.7335 13.8346 11.5934C13.271 12.3439 12.4255 12.7504 11.6114 12.7504C11.126 12.7504 10.6719 12.6097 10.2649 12.3126C10.1709 12.2344 10.077 12.1563 9.9987 12.0781C9.93607 12.0156 9.87345 11.9374 9.82647 11.8592C9.74819 11.7498 9.66991 11.6247 9.60728 11.4996C9.57597 11.437 9.54465 11.3745 9.529 11.312C9.48202 11.1869 9.45071 11.0462 9.4194 10.9054C9.40374 10.8273 9.38808 10.7335 9.38808 10.6396C9.35677 10.1862 9.43505 9.70153 9.65425 9.23248C9.68556 9.1543 9.73253 9.07612 9.7795 8.99795C9.84213 8.8885 9.90476 8.79469 9.98304 8.70088C10.2805 8.30999 10.6406 8.01292 11.032 7.8253C11.0947 7.79403 11.1416 7.7784 11.2043 7.74712C11.5331 7.60641 11.8619 7.54387 12.2063 7.54387ZM12.2063 7.15298C11.8149 7.15298 11.4391 7.23116 11.0634 7.38751C11.0007 7.40315 10.9381 7.43442 10.8755 7.46569C10.4058 7.70022 9.9987 8.04419 9.68556 8.45071C9.59162 8.57579 9.52899 8.68524 9.46637 8.79469C9.4194 8.87286 9.37243 8.96668 9.32546 9.06049C9.0906 9.56082 8.98101 10.1237 9.01232 10.6553C9.01232 10.7491 9.02798 10.8429 9.04363 10.9524C9.07495 11.0774 9.10626 11.2182 9.13758 11.3432L9.15323 11.4058C9.18455 11.484 9.21586 11.5465 9.24717 11.6403C9.32546 11.7967 9.40374 11.9374 9.49768 12.0781C9.56031 12.1719 9.63859 12.2501 9.70122 12.3283C9.79516 12.4377 9.90476 12.5315 10.0144 12.6097C10.4684 12.9537 11.0007 13.1257 11.58 13.1257C12.5351 13.1257 13.4902 12.641 14.1008 11.8123C14.821 10.8742 14.9776 9.62336 14.5235 8.63834C14.4139 8.38817 14.2573 8.16928 14.0851 7.98165C14.0225 7.90348 13.9442 7.84094 13.8659 7.7784C13.8346 7.74712 13.7876 7.71585 13.7407 7.68458C13.725 7.66895 13.7094 7.65331 13.6937 7.65331C13.4275 7.45005 13.1144 7.32497 12.8013 7.2468C12.7073 7.23116 12.6134 7.19989 12.5194 7.19989C12.4412 7.16862 12.3159 7.15298 12.2063 7.15298Z" fill="#2A2D43"/>
<path opacity="0.25" fill-rule="evenodd" clip-rule="evenodd" d="M9.38794 10.6396C9.38794 10.7335 9.4036 10.8116 9.41925 10.9054C9.45057 11.0462 9.48188 11.1712 9.52885 11.312C9.54451 11.3745 9.57582 11.437 9.60713 11.4996C9.66976 11.6247 9.73239 11.7498 9.82633 11.8592C9.82633 11.8748 9.84199 11.8748 9.84199 11.8905C10.7971 11.8905 11.7521 11.8123 11.7521 11.8123L14.0537 8.6227C13.991 8.49762 13.9128 8.37253 13.8345 8.24745C13.7718 8.18491 13.7249 8.12237 13.6466 8.07546C13.6153 8.04419 13.5683 8.01292 13.537 7.99729C13.5213 7.99729 13.5213 7.98165 13.5057 7.98165C13.2708 7.80966 13.0047 7.68458 12.7385 7.62204C12.6602 7.6064 12.5819 7.59077 12.488 7.57513C12.0026 8.37253 11.0006 9.7328 9.38794 10.6396Z" fill="#2A2D43"/>
<path opacity="0.2" fill-rule="evenodd" clip-rule="evenodd" d="M11.7835 8.09109C11.7835 8.09109 10.985 8.18491 10.5309 8.70087C10.0925 9.2012 9.96729 9.92042 9.96729 9.92042C9.96729 9.92042 10.2648 9.35755 10.7032 8.87286C11.0946 8.45071 11.7365 8.138 11.7835 8.09109Z" fill="white"/>
<path opacity="0.2" fill-rule="evenodd" clip-rule="evenodd" d="M8.33907 4.94843C8.33907 4.94843 7.41531 5.15168 7.11783 6.13671C6.82036 7.12173 7.4936 6.98101 7.54057 6.57449C7.58754 6.19925 7.54057 5.91781 7.90068 5.54257C8.22947 5.21422 8.49563 4.96406 8.33907 4.94843Z" fill="white"/>
<path fill-rule="evenodd" clip-rule="evenodd" d="M11.1571 26.8534C10.2333 27.6821 9.18433 28.4951 8.18229 29.1518C6.61661 30.1837 5.12921 30.8717 4.20546 30.7935C3.9393 30.7779 3.70445 30.5903 3.62616 30.3401C3.36 29.4489 3.7201 27.6665 5.37972 25.3368C5.91206 24.5863 6.56964 23.7733 7.39945 22.929C8.63634 24.2423 9.90454 25.5401 11.1571 26.8534Z" fill="#6355E0"/>
<path d="M4.33081 30.9968C4.28384 30.9968 4.23687 30.9968 4.17424 30.9968C3.82979 30.9655 3.51666 30.731 3.42271 30.4026C3.14089 29.4958 3.46968 27.6665 5.20759 25.243C5.77124 24.4456 6.46013 23.6326 7.24297 22.8195C7.27429 22.7883 7.32126 22.757 7.38389 22.757C7.43086 22.757 7.47783 22.7726 7.5248 22.8195C8.77734 24.1173 10.0299 25.4306 11.2981 26.7283C11.3294 26.7596 11.3607 26.8222 11.3451 26.8691C11.3451 26.916 11.3137 26.9629 11.2824 27.0098C10.3274 27.8697 9.29402 28.6671 8.27632 29.3394C7.3056 29.9492 5.53638 30.9968 4.33081 30.9968ZM7.38389 23.2104C6.66367 23.9609 6.0374 24.7114 5.52073 25.4463C3.87676 27.7759 3.54797 29.4645 3.79848 30.2932C3.84545 30.4652 4.01767 30.6059 4.22121 30.6215C5.01971 30.6841 6.42882 30.0899 8.07279 29.0111C9.02785 28.3857 9.98292 27.6508 10.891 26.8534C9.71675 25.6339 8.55815 24.43 7.38389 23.2104Z" fill="#2A2D43"/>
<path opacity="0.25" fill-rule="evenodd" clip-rule="evenodd" d="M11.1573 26.8534C10.2335 27.6821 9.18452 28.4951 8.18248 29.1518C8.15117 29.0424 8.1042 28.9329 8.05723 28.8078C7.55621 27.4007 6.94559 26.6502 6.1471 25.8215C5.9279 25.587 5.64608 25.4306 5.36426 25.3368C5.89659 24.5863 6.55417 23.7733 7.38399 22.929C8.63653 24.2423 9.90473 25.5401 11.1573 26.8534Z" fill="#2A2D43"/>
<path opacity="0.2" fill-rule="evenodd" clip-rule="evenodd" d="M4.17434 29.0424C4.17434 29.0424 3.78292 29.7147 4.11172 30.0899C4.44051 30.4652 6.00619 29.7929 6.00619 29.7929C6.00619 29.7929 5.19204 29.9179 4.81627 29.746C4.45617 29.5896 4.33091 28.6515 4.17434 29.0424Z" fill="white"/>
<path fill-rule="evenodd" clip-rule="evenodd" d="M28.865 26.8534C29.7887 27.6821 30.8377 28.4951 31.8398 29.1518C33.4055 30.1837 34.8929 30.8717 35.8166 30.7935C36.0828 30.7779 36.3176 30.5903 36.3959 30.3401C36.6621 29.4489 36.302 27.6665 34.6424 25.3368C34.11 24.5863 33.4524 23.7733 32.6226 22.929C31.3701 24.2423 30.1175 25.5401 28.865 26.8534Z" fill="#6355E0"/>
<path d="M35.6756 30.9968C34.4701 30.9968 32.7008 29.9649 31.7301 29.3238C30.7124 28.6671 29.6791 27.8541 28.724 26.9942C28.6927 26.9629 28.6614 26.916 28.6614 26.8534C28.6614 26.8065 28.677 26.744 28.7083 26.7127C29.9609 25.415 31.2134 24.1016 32.4816 22.8039C32.513 22.7726 32.5599 22.7414 32.6225 22.7414C32.6695 22.7414 32.7165 22.757 32.7635 22.8039C33.5463 23.6169 34.2352 24.43 34.7988 25.2274C36.5367 27.6508 36.8499 29.4958 36.5837 30.387C36.4898 30.7154 36.1766 30.9499 35.8322 30.9812C35.7852 30.9968 35.7383 30.9968 35.6756 30.9968ZM29.1311 26.8378C30.0235 27.6352 30.9942 28.3701 31.9493 28.9955C33.6089 30.0743 35.0024 30.6684 35.8009 30.6059C35.9888 30.5903 36.161 30.4652 36.2236 30.2776C36.4741 29.4645 36.1453 27.7603 34.5014 25.4463C33.9847 24.7114 33.3584 23.9609 32.6382 23.2104C31.4639 24.43 30.3053 25.6339 29.1311 26.8378Z" fill="#2A2D43"/>
<path opacity="0.25" fill-rule="evenodd" clip-rule="evenodd" d="M28.865 26.8534C29.7887 27.6821 30.8377 28.4951 31.8398 29.1518C31.8711 29.0424 31.9181 28.9329 31.965 28.8078C32.4661 27.4007 33.0767 26.6502 33.8752 25.8215C34.0944 25.587 34.3762 25.4306 34.658 25.3368C34.1257 24.5863 33.4681 23.7733 32.6383 22.929C31.3701 24.2423 30.1175 25.5401 28.865 26.8534Z" fill="#2A2D43"/>
<path opacity="0.2" fill-rule="evenodd" clip-rule="evenodd" d="M35.848 29.0424C35.848 29.0424 36.2394 29.7147 35.9106 30.0899C35.5818 30.4495 34.0161 29.7929 34.0161 29.7929C34.0161 29.7929 34.8303 29.9179 35.206 29.746C35.5661 29.5896 35.6914 28.6515 35.848 29.0424Z" fill="white"/>
<path fill-rule="evenodd" clip-rule="evenodd" d="M31.3075 34.7336C30.5403 35.359 21.8977 35.359 21.2558 34.7336C21.1149 33.8268 20.927 32.8574 21.1305 32.0131C21.3497 31.9505 21.5846 31.888 21.8508 31.8254C24.9038 31.0593 30.6029 30.0743 31.2918 34.6085C31.2918 34.6554 31.2918 34.6867 31.3075 34.7336Z" fill="#2A2D43"/>
<path d="M26.2348 35.3903C25.1701 35.3903 21.6317 35.359 21.1307 34.8743C21.0993 34.843 21.0837 34.8118 21.068 34.7649C21.0524 34.6554 21.0367 34.546 21.0211 34.4365C20.8958 33.6079 20.7549 32.7636 20.9428 31.9662C20.9584 31.9036 21.0054 31.8411 21.0837 31.8254C21.3029 31.7629 21.5377 31.7004 21.8039 31.6378C25.5146 30.6997 28.2232 30.7622 29.8202 31.8254C30.7283 32.4352 31.2919 33.3577 31.4798 34.5929C31.4798 34.6398 31.4955 34.6867 31.4955 34.7336C31.5111 34.7961 31.4798 34.8587 31.4328 34.9056C30.8222 35.3746 26.9863 35.3903 26.2348 35.3903ZM21.4438 34.6242C21.8039 34.8118 23.6201 34.9994 26.2348 34.9994C28.8808 34.9994 30.6343 34.8118 31.104 34.6242C30.9318 33.4984 30.4308 32.6698 29.6166 32.1225C28.1136 31.1219 25.5146 31.075 21.9135 31.9974C21.6943 32.06 21.4908 32.1069 21.3029 32.1538C21.1776 32.8417 21.2872 33.6235 21.4125 34.374C21.4125 34.4678 21.4281 34.546 21.4438 34.6242Z" fill="#2A2D43"/>
<path opacity="0.2" fill-rule="evenodd" clip-rule="evenodd" d="M26.6731 31.5909C26.6731 31.5909 28.0666 31.6065 29.0529 32.0756C30.0393 32.5603 30.462 33.3577 30.462 33.3577C30.462 33.3577 28.7711 31.9193 26.6731 31.5909Z" fill="white"/>
<path opacity="0.25" fill-rule="evenodd" clip-rule="evenodd" d="M31.3075 34.7336C30.5403 35.359 21.8977 35.359 21.2558 34.7336C21.1149 33.8268 20.927 32.8574 21.1305 32.0131C21.3497 31.9505 22.5397 31.6691 22.8058 31.5909C22.8058 31.5909 22.7275 33.1701 23.6983 33.686C26.2503 35.015 30.8691 34.5772 30.8691 34.5772L31.3075 34.6085C31.2918 34.6554 31.2918 34.6867 31.3075 34.7336Z" fill="#2A2D43"/>
<path opacity="0.35" fill-rule="evenodd" clip-rule="evenodd" d="M21.4595 32.3258C21.4595 32.3258 21.4282 33.1545 21.4595 33.5297C21.4908 33.9049 21.6004 34.6085 21.6004 34.6085C21.6004 34.6085 24.4499 34.9212 26.2191 34.8743C27.9884 34.8274 30.8536 34.5773 30.8536 34.5773C30.8536 34.5773 27.5343 34.6398 26.4383 34.5929C25.3424 34.546 23.9646 34.5773 22.9782 34.2176C22.0701 33.8737 21.5534 32.0913 21.4595 32.3258Z" fill="#2A2D43"/>
<path fill-rule="evenodd" clip-rule="evenodd" d="M8.88696 34.7336C9.65415 35.359 18.2967 35.359 18.9386 34.7336C19.0795 33.8268 19.2674 32.8574 19.0639 32.0131C18.8447 31.9505 18.6098 31.888 18.3437 31.8254C15.2906 31.0593 9.59152 30.0743 8.90262 34.6085C8.90262 34.6554 8.88696 34.6867 8.88696 34.7336Z" fill="#2A2D43"/>
<path d="M13.9598 35.3903C13.1926 35.3903 9.37238 35.359 8.76177 34.89C8.7148 34.8431 8.68348 34.7805 8.69914 34.718C8.69914 34.6711 8.7148 34.6242 8.7148 34.5773C8.90268 33.3577 9.45067 32.4196 10.3744 31.8254C11.9714 30.7622 14.68 30.6997 18.3907 31.6378C18.6569 31.7004 18.8917 31.7629 19.1109 31.8254C19.1735 31.8411 19.2362 31.9036 19.2518 31.9662C19.4397 32.7636 19.2988 33.6079 19.1735 34.4365C19.1579 34.546 19.1422 34.6554 19.1266 34.7649C19.1266 34.8118 19.0953 34.843 19.0639 34.8743C18.5629 35.359 15.0245 35.3903 13.9598 35.3903ZM9.09056 34.6398C9.54461 34.8274 11.2982 35.015 13.9598 35.015C16.5902 35.015 18.4064 34.8274 18.7508 34.6398C18.7665 34.5616 18.7821 34.4678 18.7821 34.3896C18.8917 33.6391 19.017 32.873 18.8917 32.1694C18.7038 32.1225 18.5003 32.06 18.2811 32.0131C14.68 31.0906 12.081 31.1375 10.578 32.1382C9.7638 32.6697 9.26279 33.5141 9.09056 34.6398Z" fill="#2A2D43"/>
<path opacity="0.2" fill-rule="evenodd" clip-rule="evenodd" d="M13.5057 31.5909C13.5057 31.5909 12.1123 31.6065 11.1259 32.0756C10.1395 32.5603 9.7168 33.3577 9.7168 33.3577C9.7168 33.3577 11.4234 31.9193 13.5057 31.5909Z" fill="white"/>
<path opacity="0.25" fill-rule="evenodd" clip-rule="evenodd" d="M8.88696 34.7336C9.65415 35.359 18.2967 35.359 18.9386 34.7336C19.0795 33.8268 19.2674 32.8574 19.0639 32.0131C18.8447 31.9505 17.6548 31.6691 17.3886 31.5909C17.3886 31.5909 17.4669 33.1701 16.4962 33.686C13.9441 35.015 9.32535 34.5772 9.32535 34.5772L8.88696 34.6085C8.90262 34.6554 8.88696 34.6867 8.88696 34.7336Z" fill="#2A2D43"/>
<path opacity="0.35" fill-rule="evenodd" clip-rule="evenodd" d="M18.7195 32.3258C18.7195 32.3258 18.7508 33.1545 18.7195 33.5297C18.6882 33.9049 18.5786 34.6085 18.5786 34.6085C18.5786 34.6085 15.7291 34.9212 13.9599 34.8743C12.1906 34.8274 9.32544 34.5773 9.32544 34.5773C9.32544 34.5773 12.6447 34.6398 13.7407 34.5929C14.8366 34.546 16.2144 34.5773 17.2008 34.2176C18.1089 33.8737 18.6412 32.0913 18.7195 32.3258Z" fill="#2A2D43"/>
<path fill-rule="evenodd" clip-rule="evenodd" d="M33.9537 20.9276C33.9537 27.4945 27.7223 32.8104 20.0505 32.8104C12.3786 32.8104 6.14722 27.4945 6.14722 20.9276C6.14722 14.3608 12.3786 6.29303 20.0505 6.29303C27.7223 6.29303 33.9537 14.3608 33.9537 20.9276Z" fill="#847EED"/>
<path d="M20.0503 32.9981C12.2846 32.9981 5.95923 27.5883 5.95923 20.9277C5.95923 17.6442 7.49359 13.9387 10.077 11.0149C12.8952 7.84093 16.4336 6.08978 20.0503 6.08978C23.6671 6.08978 27.2055 7.84093 30.0237 11.0149C32.6071 13.9231 34.1415 17.6286 34.1415 20.9277C34.1415 27.5883 27.8161 32.9981 20.0503 32.9981ZM20.0503 6.48066C16.5432 6.48066 13.0987 8.18491 10.3588 11.2807C7.83804 14.1263 6.33499 17.7381 6.33499 20.9277C6.33499 27.3694 12.4881 32.6072 20.0503 32.6072C27.6126 32.6072 33.7657 27.3694 33.7657 20.9277C33.7657 17.7224 32.2627 14.1107 29.7419 11.2807C27.002 8.18491 23.5575 6.48066 20.0503 6.48066Z" fill="#2A2D43"/>
<path fill-rule="evenodd" clip-rule="evenodd" d="M33.7655 20.9276C33.7655 21.1309 33.7655 21.3342 33.7499 21.5374C33.3898 27.6039 27.5341 32.5134 20.4259 32.701C20.2694 32.701 20.1128 32.701 19.9719 32.701C19.6431 32.701 19.3143 32.6854 18.9855 32.6697C12.6915 31.8411 7.85352 26.9003 7.85352 20.912C7.85352 14.7986 12.9107 7.35624 19.4239 6.38685C19.5961 6.37122 19.784 6.37122 19.9562 6.37122C20.1128 6.37122 20.2694 6.37122 20.4103 6.38685C27.3932 6.68392 33.2019 13.8136 33.7186 20.0052C33.7342 20.099 33.7342 20.2084 33.7342 20.3022C33.7499 20.5211 33.7655 20.7244 33.7655 20.9276Z" fill="#6355E0"/>
<path fill-rule="evenodd" clip-rule="evenodd" d="M8.88696 16.5967C8.88696 16.5967 12.7542 6.98102 19.925 6.98102C21.4437 6.98102 22.9155 7.34063 24.2619 7.98168C23.2286 7.6377 22.1639 7.43444 21.0523 7.43444C13.8658 7.45008 8.88696 16.5967 8.88696 16.5967Z" fill="white"/>
<path fill-rule="evenodd" clip-rule="evenodd" d="M9.05914 19.7081C8.6364 22.1159 8.49549 24.5238 10.2804 26.4938C12.3314 28.7609 21.6785 28.714 24.5594 28.3231C26.9705 27.9948 29.5852 26.7283 30.0079 25.5244C30.9473 22.8508 30.8534 20.2397 29.4913 18.1289C28.5205 16.6279 26.5165 16.925 24.8725 16.9094C22.9937 16.8937 9.48187 17.2221 9.05914 19.7081Z" fill="#F1F2F2"/>
<path d="M20.4417 28.7297C16.5901 28.7297 11.6269 28.2762 10.1395 26.6345C8.22939 24.5081 8.4799 21.9283 8.87132 19.6768C9.07486 18.5198 11.533 17.6912 16.4022 17.1752C20.2225 16.7687 24.121 16.7061 24.8726 16.7061C25.1074 16.7061 25.3579 16.7061 25.6084 16.7061C27.0958 16.6749 28.7711 16.6436 29.6636 18.0195C31.01 20.1146 31.1979 22.7413 30.1959 25.587C29.7262 26.9472 26.908 28.1981 24.5907 28.5108C23.7296 28.6358 22.1953 28.7297 20.4417 28.7297ZM9.24708 19.7394C8.87132 21.897 8.62081 24.3674 10.4213 26.3687C11.2668 27.3068 13.631 27.9635 17.1225 28.2137C20.0033 28.4326 23.0251 28.3388 24.5438 28.1355C26.9393 27.8072 29.46 26.5407 29.8358 25.4619C30.8065 22.7257 30.6343 20.2241 29.3348 18.2228C28.5676 17.0345 27.0645 17.0501 25.6084 17.0814C25.3579 17.0814 25.1074 17.097 24.8726 17.0814C21.5377 17.0657 9.60719 17.6286 9.24708 19.7394Z" fill="#2A2D43"/>
<path fill-rule="evenodd" clip-rule="evenodd" d="M29.3503 25.3524C28.9276 26.4938 26.4381 27.6821 24.1522 27.9948C21.3966 28.3701 12.4723 28.417 10.5308 26.2593C8.82422 24.3674 8.96513 22.0847 9.35655 19.7863C9.38787 19.583 9.52878 19.3798 9.73232 19.2078C9.3409 21.5062 9.19999 23.8046 10.9066 25.6808C12.8637 27.8541 21.7724 27.7915 24.528 27.4163C26.4381 27.1661 28.4735 26.2906 29.3503 25.3524Z" fill="#E6E7E8"/>
<path d="M20.0033 25.1492C18.7664 25.1492 17.7644 24.3674 17.7487 24.3674C17.6235 24.2736 17.6078 24.086 17.7017 23.9609C17.7957 23.8358 17.9836 23.8202 18.1088 23.914C18.1871 23.9765 19.9876 25.3837 21.6003 23.9296C21.7099 23.8202 21.8978 23.8358 22.0074 23.9453C22.117 24.0547 22.1013 24.2423 21.9917 24.3518C21.3341 24.9616 20.6296 25.1492 20.0033 25.1492Z" fill="#2A2D43"/>
<path fill-rule="evenodd" clip-rule="evenodd" d="M21.4436 17.5661C21.4436 17.5661 26.9861 17.1908 27.8629 17.6912C28.7553 18.1915 29.5069 19.1296 29.7261 20.6306C29.9452 22.1316 29.867 22.9446 29.867 22.9446C29.867 22.9446 29.4912 18.7387 26.7826 18.2853C24.0896 17.8319 21.4436 17.5661 21.4436 17.5661Z" fill="white"/>
<path opacity="0.2" fill-rule="evenodd" clip-rule="evenodd" d="M23.5259 16.3309C23.4789 16.3465 23.4946 16.4091 23.5416 16.4091C24.3244 16.3153 26.626 16.0807 27.8785 16.3622C29.1467 16.6436 30.1957 16.925 30.6498 18.4573C30.9473 19.4267 30.9942 20.2866 31.0725 20.8026C31.0882 20.8651 31.1664 20.8495 31.1664 20.8026C31.2134 19.8488 31.2447 17.7537 30.5558 16.9876C30.0235 16.3622 27.0174 15.2052 23.5259 16.3309Z" fill="white"/>
<path fill-rule="evenodd" clip-rule="evenodd" d="M24.857 21.0527C25.5459 21.0371 26.1252 21.6625 26.1408 22.4443C26.1565 23.226 25.6085 23.8827 24.9196 23.8984C24.2307 23.914 23.6514 23.2886 23.6357 22.5068C23.6357 21.7094 24.1681 21.0684 24.857 21.0527Z" fill="#121B36"/>
<path fill-rule="evenodd" clip-rule="evenodd" d="M24.9509 21.0684C24.9509 21.0684 25.4676 21.0997 25.6711 21.0684C25.9373 21.0215 26.3131 20.6931 26.3287 20.6619C26.3757 20.615 26.2661 20.9902 26.0469 21.2873C25.9843 21.3655 25.9216 21.4749 26.4227 21.256C27.0176 21.0058 27.0176 20.8026 27.0333 20.8808C27.0646 21.256 26.4227 21.9752 26.0156 22.0221C25.6085 22.069 24.9509 21.0684 24.9509 21.0684Z" fill="#121B36"/>
<path fill-rule="evenodd" clip-rule="evenodd" d="M15.2278 21.0527C14.5389 21.0371 13.9596 21.6625 13.9439 22.4443C13.9283 23.226 14.4763 23.8827 15.1652 23.8984C15.8541 23.914 16.4334 23.2886 16.449 22.5068C16.4647 21.7251 15.9167 21.0684 15.2278 21.0527Z" fill="#121B36"/>
<path fill-rule="evenodd" clip-rule="evenodd" d="M15.1496 21.0684C15.1496 21.0684 14.6329 21.0997 14.4294 21.0684C14.1632 21.0215 13.7875 20.6931 13.7718 20.6619C13.7249 20.615 13.8345 20.9902 14.0536 21.2873C14.1163 21.3655 14.1789 21.4749 13.6779 21.256C13.0829 21.0058 13.0829 20.8026 13.0673 20.8808C13.036 21.256 13.6779 21.9752 14.085 22.0221C14.4764 22.069 15.1496 21.0684 15.1496 21.0684Z" fill="#121B36"/>
<path fill-rule="evenodd" clip-rule="evenodd" d="M31.417 10.796C31.1195 10.624 29.8513 8.5758 29.8513 8.5758L30.3523 7.93475C30.3523 7.93475 32.5756 8.09111 32.967 8.38818C33.3584 8.68525 32.5913 9.57646 32.3721 9.84226C32.2938 9.9517 32.1685 10.155 32.0276 10.3426C31.8241 10.6397 31.6049 10.9055 31.417 10.796Z" fill="#72BF44"/>
<path d="M31.5109 11.0149C31.4483 11.0149 31.3857 10.9993 31.323 10.968C31.0099 10.7804 29.9922 9.16994 29.6947 8.68525L29.6165 8.5758L30.274 7.74713H30.368C30.7437 7.7784 32.6695 7.91912 33.0766 8.23182C33.1705 8.31 33.2488 8.41945 33.2645 8.54453C33.3115 8.91978 32.9513 9.4201 32.6069 9.85789C32.5756 9.9048 32.5443 9.93607 32.5286 9.96734C32.4973 10.0142 32.4347 10.0924 32.3877 10.1706C32.3251 10.2644 32.2625 10.3582 32.1998 10.4677C32.0589 10.6397 31.8084 11.0149 31.5109 11.0149ZM30.0862 8.59144C30.6655 9.52955 31.3387 10.4989 31.5109 10.624C31.5422 10.6084 31.6518 10.5615 31.871 10.2331C31.9337 10.1393 31.9963 10.0455 32.0589 9.9517C32.1215 9.85789 32.1685 9.77972 32.2155 9.71717C32.2468 9.6859 32.2625 9.65463 32.3094 9.60773C32.4816 9.38883 32.92 8.8416 32.8887 8.59144C32.8887 8.56016 32.8731 8.54453 32.8574 8.52889C32.6226 8.35691 31.3387 8.18492 30.4463 8.12238L30.0862 8.59144Z" fill="#2A2D43"/>
<path opacity="0.25" fill-rule="evenodd" clip-rule="evenodd" d="M31.417 10.796C31.1195 10.624 29.8513 8.57581 29.8513 8.57581L30.0705 8.29437L30.368 8.41945C30.368 8.41945 30.6811 9.31067 31.3387 9.87354C31.6362 10.1081 31.8554 10.2644 32.0276 10.3582C31.8241 10.6397 31.6049 10.9055 31.417 10.796Z" fill="#2A2D43"/>
<path opacity="0.2" fill-rule="evenodd" clip-rule="evenodd" d="M31.8867 8.51324C31.8867 8.51324 32.3877 8.54452 32.4973 8.74777C32.6069 8.95103 32.2781 9.29501 32.2781 9.29501C32.2781 9.29501 32.4034 8.84158 31.8867 8.51324Z" fill="white"/>
<path fill-rule="evenodd" clip-rule="evenodd" d="M26.767 7.15298C27.0019 7.40315 29.3034 8.13801 29.3034 8.13801L29.8044 7.49696C29.8044 7.49696 29.1155 5.3862 28.7398 5.07349C28.364 4.76079 27.6751 5.73017 27.4716 5.99597C27.3776 6.10542 27.221 6.27741 27.0645 6.4494C26.814 6.7152 26.6104 7.01227 26.767 7.15298Z" fill="#72BF44"/>
<path d="M29.3659 8.37253L29.2407 8.32563C28.6927 8.15364 26.8765 7.54386 26.626 7.2937C26.3285 6.99663 26.7356 6.52757 26.9078 6.32431C26.9861 6.2305 27.0644 6.15233 27.1426 6.05851C27.2053 5.98034 27.2679 5.9178 27.3149 5.87089C27.3305 5.83962 27.3618 5.80835 27.3932 5.77708C27.7376 5.33929 28.129 4.87023 28.5048 4.82333C28.63 4.80769 28.7553 4.83896 28.8492 4.93277C29.2563 5.26112 29.8513 7.07481 29.9765 7.45005L30.0078 7.54386L29.3659 8.37253ZM26.9078 7.0279C27.08 7.16862 28.1917 7.57514 29.2407 7.91911L29.6008 7.46569C29.3189 6.60575 28.8492 5.41747 28.63 5.22984C28.6144 5.21421 28.5987 5.21421 28.5674 5.21421C28.3169 5.24548 27.8785 5.80835 27.7063 6.01161C27.675 6.05851 27.6437 6.08978 27.628 6.12106C27.581 6.1836 27.5184 6.24614 27.4401 6.32431C27.3618 6.40249 27.2836 6.48067 27.2053 6.57448C26.9235 6.88718 26.9078 6.99663 26.9078 7.0279Z" fill="#2A2D43"/>
<path opacity="0.25" fill-rule="evenodd" clip-rule="evenodd" d="M26.767 7.15298C27.0018 7.40314 29.3034 8.138 29.3034 8.138L29.5226 7.85657L29.3347 7.6064C29.3347 7.6064 28.3953 7.52822 27.6907 7.01226C27.3933 6.79337 27.1897 6.60574 27.0488 6.46503C26.8139 6.71519 26.6104 7.01226 26.767 7.15298Z" fill="#2A2D43"/>
<path opacity="0.2" fill-rule="evenodd" clip-rule="evenodd" d="M28.8648 6.15233C28.8648 6.15233 28.7082 5.66763 28.489 5.62073C28.2698 5.57382 28.0037 5.9647 28.0037 5.9647C28.0037 5.9647 28.4264 5.73018 28.8648 6.15233Z" fill="white"/>
<path fill-rule="evenodd" clip-rule="evenodd" d="M30.5558 8.41944L30.4619 8.54452C30.4619 8.56016 30.4463 8.56016 30.4463 8.57579C30.2114 8.85723 29.7887 8.90413 29.4912 8.6696L29.2876 8.51325C29.0058 8.29436 28.9432 7.88784 29.1311 7.59077C29.1467 7.57514 29.1467 7.5595 29.1624 7.54386L29.2563 7.41878C29.4912 7.12171 29.9296 7.05917 30.2271 7.2937L30.4306 7.45005C30.7281 7.68458 30.7907 8.12237 30.5558 8.41944Z" fill="#72BF44"/>
<path d="M29.9138 8.99795C29.7259 8.99795 29.5381 8.93541 29.3658 8.81033L29.1623 8.65398C28.8022 8.37254 28.7239 7.85658 28.9588 7.48133C28.9744 7.45006 28.9901 7.43443 29.0057 7.41879L29.0997 7.29371C29.2406 7.10609 29.4598 6.99664 29.6946 6.96537C29.9295 6.9341 30.1643 6.99664 30.3522 7.15299L30.5558 7.30934C30.7436 7.45006 30.8532 7.66895 30.8845 7.90348C30.9159 8.13801 30.8532 8.37254 30.6967 8.56017L30.6027 8.68525C30.5871 8.70088 30.5871 8.71652 30.5714 8.73215C30.3992 8.90414 30.1487 8.99795 29.9138 8.99795ZM29.8042 7.34061C29.7886 7.34061 29.7573 7.34061 29.7416 7.34061C29.6007 7.35625 29.4911 7.41879 29.4128 7.52824L29.3189 7.65332L29.3032 7.66895L29.2875 7.68459C29.1466 7.90348 29.1936 8.20055 29.3971 8.35691L29.6007 8.51326C29.8042 8.68525 30.1174 8.65398 30.2896 8.45072L30.3992 8.31C30.4775 8.20055 30.5244 8.07547 30.5088 7.93475C30.4931 7.79404 30.4305 7.68459 30.3209 7.60641L30.1174 7.45006C30.0234 7.37188 29.9138 7.34061 29.8042 7.34061Z" fill="#2A2D43"/>
<path opacity="0.25" fill-rule="evenodd" clip-rule="evenodd" d="M30.4776 8.52889C30.2427 8.81032 29.773 8.8885 29.4756 8.65397L29.272 8.49761C28.9902 8.27872 28.9276 7.8722 29.1155 7.57513H29.1781C29.1937 7.57513 29.7261 8.3569 30.4776 8.52889Z" fill="#2A2D43"/>
<path fill-rule="evenodd" clip-rule="evenodd" d="M8.43295 10.796C8.73043 10.624 9.99863 8.5758 9.99863 8.5758L9.49761 7.93475C9.49761 7.93475 7.27434 8.09111 6.88292 8.38818C6.4915 8.68525 7.25869 9.57646 7.47788 9.84226C7.55617 9.9517 7.68142 10.155 7.82233 10.3426C8.02587 10.6397 8.26072 10.9055 8.43295 10.796Z" fill="#ED1C24"/>
<path d="M8.35464 11.0149C8.05716 11.0149 7.79099 10.6396 7.66574 10.452C7.60311 10.3582 7.52482 10.2488 7.47785 10.155C7.43088 10.0768 7.36826 9.9986 7.33694 9.93606C7.32129 9.90479 7.28997 9.87352 7.25866 9.82661C6.91421 9.38882 6.5541 8.88849 6.60107 8.51325C6.61673 8.38817 6.67936 8.27872 6.78896 8.20054C7.21169 7.88784 9.12182 7.73149 9.49758 7.71585H9.59152L10.2491 8.54452L10.1708 8.65397C9.87334 9.13866 8.85565 10.7491 8.54252 10.9367C8.47989 10.9993 8.41726 11.0149 8.35464 11.0149ZM9.4193 8.138C8.52686 8.20054 7.243 8.37253 7.00815 8.54452C6.99249 8.56015 6.97684 8.57579 6.97684 8.60706C6.94552 8.85722 7.38391 9.42009 7.55614 9.62335C7.58745 9.67026 7.61877 9.70153 7.63442 9.7328C7.68139 9.79534 7.72836 9.87352 7.79099 9.96733C7.85362 10.0611 7.91624 10.155 7.97887 10.2488C8.21372 10.5771 8.32332 10.6396 8.33898 10.6396C8.5112 10.5146 9.18445 9.52954 9.76375 8.60706L9.4193 8.138Z" fill="#2A2D43"/>
<path opacity="0.25" fill-rule="evenodd" clip-rule="evenodd" d="M8.43288 10.796C8.73036 10.624 9.99856 8.57578 9.99856 8.57578L9.77937 8.29434L9.48189 8.41942C9.48189 8.41942 9.16875 9.31063 8.51116 9.8735C8.21369 10.108 7.99449 10.2644 7.82227 10.3582C8.0258 10.6396 8.26066 10.9054 8.43288 10.796Z" fill="#2A2D43"/>
<path opacity="0.2" fill-rule="evenodd" clip-rule="evenodd" d="M7.97893 8.51324C7.97893 8.51324 7.47791 8.54452 7.36831 8.74777C7.25872 8.95103 7.58751 9.29501 7.58751 9.29501C7.58751 9.29501 7.4466 8.84159 7.97893 8.51324Z" fill="white"/>
<path fill-rule="evenodd" clip-rule="evenodd" d="M13.0987 7.15298C12.8638 7.40315 10.5623 8.13801 10.5623 8.13801L10.0613 7.49696C10.0613 7.49696 10.7502 5.3862 11.1259 5.07349C11.5017 4.76079 12.1906 5.73017 12.3941 5.99597C12.4881 6.10542 12.6447 6.27741 12.8012 6.4494C13.0361 6.7152 13.2396 7.01227 13.0987 7.15298Z" fill="#ED1C24"/>
<path d="M10.4996 8.37254L9.84204 7.54387L9.87335 7.45006C9.99861 7.09045 10.5936 5.26112 11.0006 4.93278C11.0946 4.8546 11.2198 4.82333 11.3451 4.82333C11.7209 4.87024 12.1279 5.3393 12.4567 5.77709C12.488 5.82399 12.5194 5.85526 12.535 5.88653C12.582 5.93344 12.629 5.99598 12.7072 6.07416C12.7855 6.15233 12.8638 6.24614 12.9421 6.33995C13.1143 6.54321 13.5214 6.99664 13.2239 7.29371C12.9734 7.55951 11.1572 8.15365 10.6092 8.32563L10.4996 8.37254ZM10.2804 7.46569L10.6405 7.91912C11.6895 7.57514 12.8012 7.16862 12.9734 7.02791C12.9734 6.99664 12.9421 6.88719 12.6759 6.57448C12.5976 6.48067 12.5194 6.4025 12.4411 6.32432C12.3628 6.24614 12.3002 6.16797 12.2532 6.12106C12.2219 6.08979 12.2062 6.05852 12.1592 6.01161C11.987 5.79272 11.5486 5.22985 11.2981 5.21422C11.2668 5.21422 11.2512 5.21422 11.2355 5.22985C11.0163 5.40184 10.5623 6.60575 10.2804 7.46569Z" fill="#2A2D43"/>
<path opacity="0.25" fill-rule="evenodd" clip-rule="evenodd" d="M13.0986 7.15299C12.8638 7.40315 10.5622 8.13801 10.5622 8.13801L10.343 7.85658L10.5309 7.59078C10.5309 7.59078 11.4703 7.5126 12.1749 6.99664C12.4723 6.77774 12.6759 6.59012 12.8168 6.4494C13.036 6.7152 13.2395 7.01227 13.0986 7.15299Z" fill="#2A2D43"/>
<path opacity="0.2" fill-rule="evenodd" clip-rule="evenodd" d="M10.9849 6.15233C10.9849 6.15233 11.1414 5.66763 11.3606 5.62073C11.5798 5.57382 11.846 5.96471 11.846 5.96471C11.846 5.96471 11.4389 5.73018 10.9849 6.15233Z" fill="white"/>
<path fill-rule="evenodd" clip-rule="evenodd" d="M9.3098 8.41947L9.40374 8.54455C9.40374 8.56019 9.4194 8.56019 9.4194 8.57582C9.65425 8.85726 10.077 8.90416 10.3745 8.66963L10.578 8.51328C10.8598 8.29439 10.9225 7.88787 10.7346 7.5908C10.7189 7.57517 10.7189 7.55953 10.7033 7.5439L10.6093 7.41881C10.3745 7.12174 9.93607 7.0592 9.63859 7.29373L9.43506 7.45008C9.12192 7.68461 9.07495 8.1224 9.3098 8.41947Z" fill="#ED1C24"/>
<path d="M9.95162 8.99797C9.70111 8.99797 9.46626 8.88852 9.29403 8.7009C9.27837 8.68526 9.27837 8.66962 9.26272 8.66962L9.15312 8.54454C9.01221 8.35692 8.94958 8.12239 8.96524 7.88786C8.99655 7.65333 9.10615 7.45007 9.29403 7.29372L9.49757 7.13737C9.88899 6.8403 10.437 6.90284 10.7345 7.29372L10.8284 7.4188C10.8441 7.45007 10.8597 7.46571 10.8754 7.49698C11.1259 7.87223 11.0319 8.38819 10.6718 8.66962L10.4683 8.82598C10.3274 8.93542 10.1395 8.99797 9.95162 8.99797ZM9.46626 8.31001L9.57585 8.45073C9.74808 8.65399 10.0456 8.68526 10.2648 8.51327L10.4683 8.35692C10.6718 8.20057 10.7188 7.9035 10.5779 7.6846L10.5622 7.66897L10.5466 7.65333L10.4526 7.52825C10.2804 7.30936 9.96727 7.27809 9.74808 7.43444L9.54454 7.59079C9.43494 7.66897 9.37232 7.79405 9.35666 7.91913C9.341 8.07548 9.37232 8.20057 9.46626 8.31001Z" fill="#2A2D43"/>
<path opacity="0.25" fill-rule="evenodd" clip-rule="evenodd" d="M9.37231 8.52889C9.60717 8.81032 10.0769 8.8885 10.3743 8.65397L10.5779 8.49762C10.8597 8.27872 10.9223 7.8722 10.7345 7.57513H10.6718C10.6718 7.57513 10.1238 8.3569 9.37231 8.52889Z" fill="#2A2D43"/>
</svg>
