<svg width="75" height="24" viewBox="0 0 75 24" fill="none" xmlns="http://www.w3.org/2000/svg">
<path d="M15.5 14H14.705L14.43 13.725C15.41 12.59 16 11.115 16 9.5C16 5.91 13.09 3 9.5 3C5.91 3 3 5.91 3 9.5C3 13.09 5.91 16 9.5 16C11.115 16 12.59 15.41 13.725 14.435L14 14.71V15.5L19 20.49L20.49 19L15.5 14ZM9.5 14C7.015 14 5 11.985 5 9.5C5 7.015 7.015 5 9.5 5C11.985 5 14 7.015 14 9.5C14 11.985 11.985 14 9.5 14Z" fill="#2A2D43"/>
<path d="M40.8867 17H39.1641V8.44141H34.7822V17H33.0596V7.04688H40.8867V17ZM42.7568 13.2334C42.7568 12.5088 42.9004 11.8571 43.1875 11.2783C43.4746 10.695 43.8779 10.2484 44.3975 9.93848C44.917 9.62402 45.514 9.4668 46.1885 9.4668C47.1865 9.4668 47.9954 9.78809 48.6152 10.4307C49.2396 11.0732 49.5768 11.9255 49.627 12.9873L49.6338 13.377C49.6338 14.1061 49.4925 14.7578 49.21 15.332C48.932 15.9062 48.5309 16.3506 48.0068 16.665C47.4873 16.9795 46.8857 17.1367 46.2021 17.1367C45.1585 17.1367 44.3223 16.7904 43.6934 16.0977C43.069 15.4004 42.7568 14.473 42.7568 13.3154V13.2334ZM44.418 13.377C44.418 14.138 44.5752 14.735 44.8896 15.168C45.2041 15.5964 45.6416 15.8105 46.2021 15.8105C46.7627 15.8105 47.1979 15.5918 47.5078 15.1543C47.8223 14.7168 47.9795 14.0765 47.9795 13.2334C47.9795 12.486 47.8177 11.8936 47.4941 11.4561C47.1751 11.0186 46.7399 10.7998 46.1885 10.7998C45.6462 10.7998 45.2155 11.0163 44.8965 11.4492C44.5775 11.8776 44.418 12.5202 44.418 13.377ZM55.9062 9.60352H57.5605V17H55.9062V12.0645L53.0078 17H51.3535V9.60352H53.0078V14.5391L55.9062 9.60352ZM62.6162 15.8105C63.0309 15.8105 63.375 15.6898 63.6484 15.4482C63.9219 15.2067 64.0677 14.9082 64.0859 14.5527H65.6514C65.6331 15.013 65.4896 15.4437 65.2207 15.8447C64.9518 16.2412 64.5872 16.5557 64.127 16.7881C63.6667 17.0205 63.1699 17.1367 62.6367 17.1367C61.6022 17.1367 60.7819 16.8018 60.1758 16.1318C59.5697 15.4619 59.2666 14.5368 59.2666 13.3564V13.1855C59.2666 12.0599 59.5674 11.1598 60.1689 10.4854C60.7705 9.80632 61.5908 9.4668 62.6299 9.4668C63.5094 9.4668 64.2249 9.72428 64.7764 10.2393C65.3324 10.7497 65.624 11.4219 65.6514 12.2559H64.0859C64.0677 11.832 63.9219 11.4834 63.6484 11.21C63.3796 10.9365 63.0355 10.7998 62.6162 10.7998C62.0785 10.7998 61.6637 10.9958 61.3721 11.3877C61.0804 11.7751 60.9323 12.3652 60.9277 13.1582V13.4248C60.9277 14.2269 61.0713 14.8262 61.3584 15.2227C61.6501 15.6146 62.0693 15.8105 62.6162 15.8105ZM69.7842 14.0742H68.9434V17H67.2822V9.60352H68.9434V12.5566H69.6748L71.7188 9.60352H73.7695L71.0967 13.1445L73.9951 17H71.835L69.7842 14.0742Z" fill="#2A2D43"/>
</svg>
