<svg width="96" height="24" viewBox="0 0 96 24" fill="none" xmlns="http://www.w3.org/2000/svg">
<path d="M4 7.99997H8V3.99997H4V7.99997ZM10 20H14V16H10V20ZM4 20H8V16H4V20ZM4 14H8V9.99997H4V14ZM10 14H14V9.99997H10V14ZM16 3.99997V7.99997H20V3.99997H16ZM10 7.99997H14V3.99997H10V7.99997ZM16 14H20V9.99997H16V14ZM16 20H20V16H16V20Z" fill="#2A2D43"/>
<path d="M40.6064 13.7598C40.5062 14.8216 40.1143 15.651 39.4307 16.248C38.7471 16.8405 37.8379 17.1367 36.7031 17.1367C35.9102 17.1367 35.2106 16.9499 34.6045 16.5762C34.0029 16.1979 33.5381 15.6624 33.21 14.9697C32.8818 14.277 32.7109 13.4727 32.6973 12.5566V11.627C32.6973 10.6882 32.8636 9.861 33.1963 9.14551C33.529 8.43001 34.0052 7.87858 34.625 7.49121C35.2493 7.10384 35.9694 6.91016 36.7852 6.91016C37.8835 6.91016 38.7676 7.20866 39.4375 7.80566C40.1074 8.40267 40.4971 9.24577 40.6064 10.335H38.8838C38.8018 9.61947 38.5921 9.10449 38.2549 8.79004C37.9222 8.47103 37.4323 8.31152 36.7852 8.31152C36.0332 8.31152 35.4544 8.58724 35.0488 9.13867C34.6478 9.68555 34.4427 10.4899 34.4336 11.5518V12.4336C34.4336 13.5091 34.625 14.3294 35.0078 14.8945C35.3952 15.4596 35.9603 15.7422 36.7031 15.7422C37.3822 15.7422 37.8926 15.5895 38.2344 15.2842C38.5762 14.9788 38.7926 14.4707 38.8838 13.7598H40.6064ZM45.5049 17.1367C44.4521 17.1367 43.5977 16.8063 42.9414 16.1455C42.2897 15.4801 41.9639 14.596 41.9639 13.4932V13.2881C41.9639 12.5498 42.1051 11.8913 42.3877 11.3125C42.6748 10.7292 43.0758 10.2757 43.5908 9.95215C44.1058 9.62858 44.68 9.4668 45.3135 9.4668C46.3206 9.4668 47.0977 9.78809 47.6445 10.4307C48.196 11.0732 48.4717 11.9824 48.4717 13.1582V13.8281H43.6387C43.6888 14.4388 43.8916 14.9219 44.2471 15.2773C44.6071 15.6328 45.0583 15.8105 45.6006 15.8105C46.3617 15.8105 46.9814 15.5029 47.46 14.8877L48.3555 15.7422C48.0592 16.1842 47.6628 16.5283 47.166 16.7744C46.6738 17.016 46.1201 17.1367 45.5049 17.1367ZM45.3066 10.7998C44.8509 10.7998 44.4818 10.9593 44.1992 11.2783C43.9212 11.5973 43.7435 12.0417 43.666 12.6113H46.8311V12.4883C46.7946 11.9323 46.6465 11.513 46.3867 11.2305C46.127 10.9434 45.7669 10.7998 45.3066 10.7998ZM56.4941 13.377C56.4941 14.5208 56.2344 15.4346 55.7148 16.1182C55.1953 16.7972 54.498 17.1367 53.623 17.1367C52.8118 17.1367 52.1624 16.8701 51.6748 16.3369V19.8438H50.0137V9.60352H51.5449L51.6133 10.3555C52.1009 9.76302 52.764 9.4668 53.6025 9.4668C54.5049 9.4668 55.2113 9.80404 55.7217 10.4785C56.2367 11.1484 56.4941 12.0804 56.4941 13.2744V13.377ZM54.8398 13.2334C54.8398 12.4951 54.6917 11.9095 54.3955 11.4766C54.1038 11.0436 53.6846 10.8271 53.1377 10.8271C52.4587 10.8271 51.971 11.1074 51.6748 11.668V14.9492C51.9756 15.5234 52.4678 15.8105 53.1514 15.8105C53.68 15.8105 54.0924 15.5986 54.3887 15.1748C54.6895 14.7464 54.8398 14.0993 54.8398 13.2334ZM58.2822 17V9.60352H61.2832C62.2949 9.60352 63.0651 9.78125 63.5938 10.1367C64.1224 10.4876 64.3867 10.9935 64.3867 11.6543C64.3867 11.9961 64.2796 12.3037 64.0654 12.5771C63.8558 12.846 63.5436 13.0534 63.1289 13.1992C63.612 13.2995 63.9948 13.5023 64.2773 13.8076C64.5599 14.113 64.7012 14.473 64.7012 14.8877C64.7012 15.5758 64.446 16.0999 63.9355 16.46C63.4297 16.82 62.7005 17 61.748 17H58.2822ZM59.9434 13.8486V15.6875H61.7617C62.6139 15.6875 63.04 15.3822 63.04 14.7715C63.04 14.1562 62.6071 13.8486 61.7412 13.8486H59.9434ZM59.9434 12.6592H61.3105C62.2539 12.6592 62.7256 12.3812 62.7256 11.8252C62.7256 11.2419 62.279 10.9411 61.3857 10.9229H59.9434V12.6592ZM71.0078 9.60352H72.6621V17H71.0078V12.0645L68.1094 17H66.4551V9.60352H68.1094V14.5391L71.0078 9.60352ZM77.7178 15.8105C78.1325 15.8105 78.4766 15.6898 78.75 15.4482C79.0234 15.2067 79.1693 14.9082 79.1875 14.5527H80.7529C80.7347 15.013 80.5911 15.4437 80.3223 15.8447C80.0534 16.2412 79.6888 16.5557 79.2285 16.7881C78.7682 17.0205 78.2715 17.1367 77.7383 17.1367C76.7038 17.1367 75.8835 16.8018 75.2773 16.1318C74.6712 15.4619 74.3682 14.5368 74.3682 13.3564V13.1855C74.3682 12.0599 74.6689 11.1598 75.2705 10.4854C75.8721 9.80632 76.6924 9.4668 77.7314 9.4668C78.611 9.4668 79.3265 9.72428 79.8779 10.2393C80.4339 10.7497 80.7256 11.4219 80.7529 12.2559H79.1875C79.1693 11.832 79.0234 11.4834 78.75 11.21C78.4811 10.9365 78.137 10.7998 77.7178 10.7998C77.18 10.7998 76.7653 10.9958 76.4736 11.3877C76.182 11.7751 76.0339 12.3652 76.0293 13.1582V13.4248C76.0293 14.2269 76.1729 14.8262 76.46 15.2227C76.7516 15.6146 77.1709 15.8105 77.7178 15.8105ZM84.0449 11.9551H85.6719C86.278 11.9551 86.8066 12.0599 87.2578 12.2695C87.709 12.4792 88.0508 12.7731 88.2832 13.1514C88.5202 13.5296 88.6387 13.9694 88.6387 14.4707C88.6387 15.2318 88.3698 15.8424 87.832 16.3027C87.2943 16.763 86.5788 16.9954 85.6855 17H82.3838V9.60352H84.0449V11.9551ZM91.5303 17H89.8691V9.60352H91.5303V17ZM84.0449 13.2881V15.6738H85.665C86.0706 15.6738 86.3896 15.5736 86.6221 15.373C86.859 15.168 86.9775 14.8786 86.9775 14.5049C86.9775 14.1312 86.8613 13.8372 86.6289 13.623C86.401 13.4043 86.0911 13.2926 85.6992 13.2881H84.0449Z" fill="#2A2D43"/>
</svg>
