<svg width="120" height="56" viewBox="0 0 120 56" fill="none" xmlns="http://www.w3.org/2000/svg">
<path d="M60.0201 39.9H16.0134V43.06H60.0201V39.9Z" fill="#EC1C24"/>
<path d="M104.027 39.9H60.0203V43.06H104.027V39.9Z" fill="#72BE44"/>
<path d="M18.4135 25.82C19.8051 27.22 21.5395 27.74 23.0925 27.74C25.674 27.74 28.2555 26.18 28.7597 23.1H20.7933V20.14H28.6992C28.195 17.1 25.6942 15.56 23.2135 15.56C21.9631 15.56 20.0269 15.9 18.3933 17.54V13.52C20.1076 12.64 21.7009 12.44 23.032 12.44C26.4404 12.44 28.5177 13.68 29.6673 14.76C31.3815 16.4 32.3294 19.02 32.3294 21.66C32.3294 25.42 30.5748 27.56 29.6874 28.4C28.2757 29.8 26.1177 30.86 23.0521 30.86C20.753 30.86 19.2202 30.22 18.3933 29.84V25.82H18.4135Z" fill="#2A2D43"/>
<path d="M37.9563 12.86H40.4572L45.1765 24.06L50.0975 12.86H52.5984L55.5832 30.48H52.074L50.4807 19.62L45.7211 30.48H44.5513L39.9933 19.62L38.1782 30.48H34.6689L37.9563 12.86Z" fill="#2A2D43"/>
<path d="M60.0605 26.7C61.2302 26.7 62.1378 27.6 62.1378 28.76C62.1378 29.92 61.2302 30.82 60.0605 30.82C58.8907 30.82 57.9832 29.92 57.9832 28.76C57.9832 27.6 58.8907 26.7 60.0605 26.7Z" fill="#2A2D43"/>
<path d="M68.9142 12.86V27.52H74.3999V30.48H65.4453V12.86H68.9142Z" fill="#2A2D43"/>
<path d="M77.9497 12.28C79.0186 12.28 79.8858 13.16 79.8858 14.2C79.8858 15.26 78.9984 16.12 77.9497 16.12C76.8807 16.12 76.0135 15.24 76.0135 14.2C75.9934 13.14 76.8807 12.28 77.9497 12.28ZM79.5631 19.04V30.48H76.316V19.04H79.5631Z" fill="#2A2D43"/>
<path d="M85.9563 21.78V30.48H82.7093V21.78H81.479V19.04H82.7093V15.9C82.7093 14.84 82.7899 13.04 84.2219 11.86C84.9076 11.28 85.8756 10.9 87.0656 10.9C87.7916 10.9 88.3765 11.04 88.921 11.3V14.24C88.4773 13.9 88.0135 13.76 87.4487 13.76C87.0252 13.76 86.6017 13.86 86.279 14.34C86.0168 14.76 85.9361 15.36 85.9361 16.32V19.04H88.921V21.78H85.9563Z" fill="#2A2D43"/>
<path d="M101.768 27.28C101.425 28.12 100.114 30.84 96.1008 30.84C94.2454 30.84 92.8336 30.32 91.684 29.22C90.4134 28.04 89.8689 26.56 89.8689 24.76C89.8689 22.48 90.7966 21.08 91.6235 20.26C92.9748 18.94 94.5882 18.64 95.9597 18.64C98.2991 18.64 99.6706 19.56 100.457 20.52C101.687 21.98 101.849 23.76 101.849 25.02V25.28H93.2168C93.2168 25.96 93.3983 26.7 93.7815 27.2C94.1244 27.68 94.8504 28.28 96.1008 28.28C97.3311 28.28 98.2588 27.7 98.7832 26.78L101.768 27.28ZM98.7832 23.24C98.521 21.68 97.2302 20.94 96.0403 20.94C94.8302 20.94 93.6 21.7 93.3176 23.24H98.7832Z" fill="#2A2D43"/>
</svg>
